<svg width="500" height="400" viewBox="0 0 500 400" fill="none" xmlns="http://www.w3.org/2000/svg">
  <rect width="500" height="400" rx="10" fill="#F5F7FA"/>
  <rect x="50" y="50" width="400" height="300" rx="10" fill="#151B42"/>
  <circle cx="150" cy="150" r="50" fill="url(#paint0_linear)"/>
  <path d="M130 150L145 165L170 140" stroke="white" stroke-width="5" stroke-linecap="round" stroke-linejoin="round"/>
  <circle cx="350" cy="150" r="50" fill="url(#paint1_linear)"/>
  <path d="M335 150L350 165L365 150" stroke="white" stroke-width="5" stroke-linecap="round" stroke-linejoin="round"/>
  <circle cx="150" cy="270" r="40" fill="url(#paint2_linear)"/>
  <path d="M150 250V290M130 270H170" stroke="white" stroke-width="5" stroke-linecap="round"/>
  <circle cx="350" cy="270" r="40" fill="url(#paint3_linear)"/>
  <path d="M350 250L350 290" stroke="white" stroke-width="5" stroke-linecap="round"/>
  <rect x="125" y="320" width="250" height="30" rx="5" fill="white"/>
  <rect x="140" y="330" width="220" height="10" rx="5" fill="url(#paint4_linear)"/>
  <rect x="150" y="50" width="200" height="30" rx="5" fill="white"/>
  <rect x="170" y="60" width="160" height="10" rx="5" fill="url(#paint5_linear)"/>
  <defs>
    <linearGradient id="paint0_linear" x1="100" y1="150" x2="200" y2="150" gradientUnits="userSpaceOnUse">
      <stop stop-color="#00C2FF"/>
      <stop offset="1" stop-color="#7B2FF7"/>
    </linearGradient>
    <linearGradient id="paint1_linear" x1="300" y1="150" x2="400" y2="150" gradientUnits="userSpaceOnUse">
      <stop stop-color="#7B2FF7"/>
      <stop offset="1" stop-color="#FF2D87"/>
    </linearGradient>
    <linearGradient id="paint2_linear" x1="110" y1="270" x2="190" y2="270" gradientUnits="userSpaceOnUse">
      <stop stop-color="#00C2FF"/>
      <stop offset="1" stop-color="#7B2FF7"/>
    </linearGradient>
    <linearGradient id="paint3_linear" x1="310" y1="270" x2="390" y2="270" gradientUnits="userSpaceOnUse">
      <stop stop-color="#7B2FF7"/>
      <stop offset="1" stop-color="#FF2D87"/>
    </linearGradient>
    <linearGradient id="paint4_linear" x1="140" y1="335" x2="360" y2="335" gradientUnits="userSpaceOnUse">
      <stop stop-color="#00C2FF"/>
      <stop offset="0.5" stop-color="#7B2FF7"/>
      <stop offset="1" stop-color="#FF2D87"/>
    </linearGradient>
    <linearGradient id="paint5_linear" x1="170" y1="65" x2="330" y2="65" gradientUnits="userSpaceOnUse">
      <stop stop-color="#00C2FF"/>
      <stop offset="0.5" stop-color="#7B2FF7"/>
      <stop offset="1" stop-color="#FF2D87"/>
    </linearGradient>
  </defs>
</svg>