<svg width="600" height="600" viewBox="0 0 600 600" fill="none" xmlns="http://www.w3.org/2000/svg">
  <!-- Центральный круг -->
  <circle cx="300" cy="300" r="100" fill="white"/>
  
  <!-- Верхний левый элемент -->
  <path d="M260 120C220 130 190 160 170 200C150 240 180 270 220 260C260 250 290 220 310 180C330 140 300 110 260 120Z" fill="url(#blue_gradient)"/>
  
  <!-- Верхний правый элемент -->
  <path d="M340 120C380 130 410 160 430 200C450 240 420 270 380 260C340 250 310 220 290 180C270 140 300 110 340 120Z" fill="url(#purple_gradient)"/>
  
  <!-- Нижний правый элемент -->
  <path d="M340 480C380 470 410 440 430 400C450 360 420 330 380 340C340 350 310 380 290 420C270 460 300 490 340 480Z" fill="url(#pink_gradient)"/>
  
  <!-- Нижний левый элемент -->
  <path d="M260 480C220 470 190 440 170 400C150 360 180 330 220 340C260 350 290 380 310 420C330 460 300 490 260 480Z" fill="url(#purple_blue_gradient)"/>
  
  <!-- Градиенты -->
  <defs>
    <linearGradient id="blue_gradient" x1="160" y1="160" x2="320" y2="160" gradientUnits="userSpaceOnUse">
      <stop offset="0" stop-color="#00C2FF"/>
      <stop offset="1" stop-color="#2575fc"/>
    </linearGradient>
    
    <linearGradient id="purple_gradient" x1="440" y1="160" x2="280" y2="160" gradientUnits="userSpaceOnUse">
      <stop offset="0" stop-color="#7B2FF7"/>
      <stop offset="1" stop-color="#6a11cb"/>
    </linearGradient>
    
    <linearGradient id="pink_gradient" x1="440" y1="440" x2="280" y2="440" gradientUnits="userSpaceOnUse">
      <stop offset="0" stop-color="#FF2D87"/>
      <stop offset="1" stop-color="#9B00FF"/>
    </linearGradient>
    
    <linearGradient id="purple_blue_gradient" x1="160" y1="440" x2="320" y2="440" gradientUnits="userSpaceOnUse">
      <stop offset="0" stop-color="#6a11cb"/>
      <stop offset="1" stop-color="#7B2FF7"/>
    </linearGradient>
  </defs>
</svg>